<svg width="180" height="180" viewBox="0 0 180 180" fill="none" xmlns="http://www.w3.org/2000/svg">
  <rect width="180" height="180" rx="32" fill="#2563EB"/>
  <path d="M90 45C112.091 45 130 62.909 130 85C130 107.091 112.091 125 90 125C67.909 125 50 107.091 50 85C50 62.909 67.909 45 90 45Z" fill="white" opacity="0.9"/>
  <path d="M90 55C106.569 55 120 68.431 120 85C120 101.569 106.569 115 90 115C73.431 115 60 101.569 60 85C60 68.431 73.431 55 90 55Z" fill="#2563EB"/>
  <text x="90" y="95" text-anchor="middle" fill="white" font-family="Arial, sans-serif" font-size="32" font-weight="bold">Dr</text>
  <text x="90" y="150" text-anchor="middle" fill="white" font-family="Arial, sans-serif" font-size="14" font-weight="normal">Ramya</text>
</svg>
